<svg width="130" height="136" viewBox="0 0 130 136" fill="none" xmlns="http://www.w3.org/2000/svg">
<g filter="url(#filter0_d_150_1993)">
<path fill-rule="evenodd" clip-rule="evenodd" d="M65 50.5C65.3315 50.5 65.6495 50.6317 65.8839 50.8661C66.1183 51.1005 66.25 51.4185 66.25 51.75V55.5C66.25 55.8315 66.1183 56.1495 65.8839 56.3839C65.6495 56.6183 65.3315 56.75 65 56.75C64.6685 56.75 64.3505 56.6183 64.1161 56.3839C63.8817 56.1495 63.75 55.8315 63.75 55.5V51.75C63.75 51.4185 63.8817 51.1005 64.1161 50.8661C64.3505 50.6317 64.6685 50.5 65 50.5ZM54.3933 54.8933C54.6277 54.6592 54.9454 54.5278 55.2767 54.5278C55.6079 54.5278 55.9256 54.6592 56.16 54.8933L58.8133 57.545C59.0409 57.7809 59.1668 58.0967 59.1638 58.4244C59.1608 58.7522 59.0292 59.0656 58.7973 59.2973C58.5654 59.5289 58.2518 59.6602 57.9241 59.6629C57.5963 59.6656 57.2806 59.5395 57.045 59.3117L54.3933 56.6617C54.2772 56.5456 54.185 56.4077 54.1222 56.256C54.0593 56.1043 54.0269 55.9417 54.0269 55.7775C54.0269 55.6133 54.0593 55.4507 54.1222 55.299C54.185 55.1473 54.2772 55.0094 54.3933 54.8933ZM75.6067 54.8933C75.8407 55.1277 75.9722 55.4454 75.9722 55.7767C75.9722 56.1079 75.8407 56.4256 75.6067 56.66L72.955 59.3133C72.7191 59.5409 72.4033 59.6668 72.0756 59.6638C71.7478 59.6608 71.4344 59.5292 71.2027 59.2973C70.9711 59.0654 70.8398 58.7518 70.8371 58.4241C70.8344 58.0963 70.9605 57.7806 71.1883 57.545L73.8383 54.8933C73.9544 54.7772 74.0923 54.685 74.244 54.6222C74.3957 54.5593 74.5583 54.5269 74.7225 54.5269C74.8867 54.5269 75.0493 54.5593 75.201 54.6222C75.3527 54.685 75.4906 54.7772 75.6067 54.8933ZM64.2467 62.3867C64.5 62.3187 64.7684 62.3322 65.0137 62.4253C65.2589 62.5183 65.4687 62.6861 65.6133 62.905L74.3267 76.1C74.463 76.3064 74.5351 76.5486 74.5337 76.796C74.5323 77.0434 74.4575 77.2848 74.3189 77.4896C74.1802 77.6945 73.9839 77.8536 73.7548 77.9469C73.5256 78.0401 73.274 78.0632 73.0317 78.0133L69.5367 77.2967L71.2783 83.7967C71.3641 84.1171 71.319 84.4585 71.1531 84.7458C70.9871 85.033 70.7138 85.2426 70.3933 85.3283C70.0729 85.4141 69.7315 85.369 69.4442 85.203C69.157 85.0371 68.9474 84.7638 68.8617 84.4433L67.1217 77.945L64.4533 80.3117C64.2684 80.4761 64.0388 80.582 63.7937 80.6158C63.5486 80.6497 63.2989 80.61 63.0763 80.5018C62.8538 80.3937 62.6683 80.2219 62.5435 80.0082C62.4186 79.7946 62.36 79.5487 62.375 79.3017L63.3233 63.5183C63.3388 63.2564 63.4363 63.006 63.6021 62.8026C63.7678 62.5992 63.9933 62.4531 64.2467 62.385V62.3867ZM50 65.5C50 65.1685 50.1317 64.8505 50.3661 64.6161C50.6005 64.3817 50.9185 64.25 51.25 64.25H55C55.3315 64.25 55.6495 64.3817 55.8839 64.6161C56.1183 64.8505 56.25 65.1685 56.25 65.5C56.25 65.8315 56.1183 66.1495 55.8839 66.3839C55.6495 66.6183 55.3315 66.75 55 66.75H51.25C50.9185 66.75 50.6005 66.6183 50.3661 66.3839C50.1317 66.1495 50 65.8315 50 65.5ZM73.75 65.5C73.75 65.1685 73.8817 64.8505 74.1161 64.6161C74.3505 64.3817 74.6685 64.25 75 64.25H78.75C79.0815 64.25 79.3995 64.3817 79.6339 64.6161C79.8683 64.8505 80 65.1685 80 65.5C80 65.8315 79.8683 66.1495 79.6339 66.3839C79.3995 66.6183 79.0815 66.75 78.75 66.75H75C74.6685 66.75 74.3505 66.6183 74.1161 66.3839C73.8817 66.1495 73.75 65.8315 73.75 65.5ZM58.8133 71.6867C58.9295 71.8027 59.0216 71.9406 59.0845 72.0923C59.1474 72.244 59.1797 72.4066 59.1797 72.5708C59.1797 72.7351 59.1474 72.8977 59.0845 73.0494C59.0216 73.2011 58.9295 73.3389 58.8133 73.455L56.1617 76.1067C56.0464 76.2261 55.9085 76.3214 55.7561 76.387C55.6036 76.4526 55.4396 76.4871 55.2736 76.4886C55.1076 76.4902 54.943 76.4586 54.7894 76.3958C54.6357 76.3331 54.4961 76.2403 54.3787 76.123C54.2613 76.0057 54.1684 75.8662 54.1055 75.7126C54.0425 75.559 54.0108 75.3944 54.0122 75.2284C54.0136 75.0625 54.048 74.8984 54.1134 74.7459C54.1788 74.5933 54.274 74.4554 54.3933 74.34L57.045 71.6867C57.2794 71.4526 57.5971 71.3211 57.9283 71.3211C58.2596 71.3211 58.5773 71.4526 58.8117 71.6867H58.8133Z" fill="url(#paint0_linear_150_1993)"/>
</g>
<defs>
<filter id="filter0_d_150_1993" x="0" y="0.5" width="130" height="134.871" filterUnits="userSpaceOnUse" color-interpolation-filters="sRGB">
<feFlood flood-opacity="0" result="BackgroundImageFix"/>
<feColorMatrix in="SourceAlpha" type="matrix" values="0 0 0 0 0 0 0 0 0 0 0 0 0 0 0 0 0 0 127 0" result="hardAlpha"/>
<feOffset/>
<feGaussianBlur stdDeviation="25"/>
<feComposite in2="hardAlpha" operator="out"/>
<feColorMatrix type="matrix" values="0 0 0 0 0.992157 0 0 0 0 0.533333 0 0 0 0 0.0235294 0 0 0 0.5 0"/>
<feBlend mode="normal" in2="BackgroundImageFix" result="effect1_dropShadow_150_1993"/>
<feBlend mode="normal" in="SourceGraphic" in2="effect1_dropShadow_150_1993" result="shape"/>
</filter>
<linearGradient id="paint0_linear_150_1993" x1="50" y1="50.5" x2="84.4799" y2="80.1636" gradientUnits="userSpaceOnUse">
<stop stop-color="#E26009"/>
<stop offset="1" stop-color="#FF8831"/>
</linearGradient>
</defs>
</svg>
