<svg width="134" height="136" viewBox="0 0 134 136" fill="none" xmlns="http://www.w3.org/2000/svg">
<g filter="url(#filter0_d_162_1548)">
<path fill-rule="evenodd" clip-rule="evenodd" d="M59.4992 58V59.25H56.1875C54.5875 59.25 53.2475 60.4567 53.0792 62.0483L50.9742 82.0483C50.9284 82.4839 50.9747 82.9242 51.11 83.3408C51.2454 83.7573 51.4668 84.1407 51.7599 84.4662C52.0529 84.7917 52.4112 85.0519 52.8113 85.23C53.2114 85.4081 53.6445 85.5001 54.0825 85.5H79.9158C80.3538 85.5001 80.7869 85.4081 81.187 85.23C81.5871 85.0519 81.9454 84.7917 82.2385 84.4662C82.5315 84.1407 82.7529 83.7573 82.8883 83.3408C83.0237 82.9242 83.0699 82.4839 83.0242 82.0483L80.9192 62.0483C80.8384 61.2802 80.4761 60.5693 79.9021 60.0525C79.3281 59.5358 78.5831 59.2499 77.8108 59.25H74.4992V58C74.4992 56.0109 73.709 54.1032 72.3025 52.6967C70.8959 51.2902 68.9883 50.5 66.9992 50.5C65.01 50.5 63.1024 51.2902 61.6959 52.6967C60.2893 54.1032 59.4992 56.0109 59.4992 58ZM66.9992 53C65.6731 53 64.4013 53.5268 63.4636 54.4645C62.5259 55.4021 61.9992 56.6739 61.9992 58V59.25H71.9992V58C71.9992 56.6739 71.4724 55.4021 70.5347 54.4645C69.597 53.5268 68.3252 53 66.9992 53ZM61.9992 66.75C61.9992 68.0761 62.5259 69.3479 63.4636 70.2855C64.4013 71.2232 65.6731 71.75 66.9992 71.75C68.3252 71.75 69.597 71.2232 70.5347 70.2855C71.4724 69.3479 71.9992 68.0761 71.9992 66.75V65.5C71.9992 65.1685 72.1308 64.8505 72.3653 64.6161C72.5997 64.3817 72.9176 64.25 73.2492 64.25C73.5807 64.25 73.8986 64.3817 74.133 64.6161C74.3675 64.8505 74.4992 65.1685 74.4992 65.5V66.75C74.4992 68.7391 73.709 70.6468 72.3025 72.0533C70.8959 73.4598 68.9883 74.25 66.9992 74.25C65.01 74.25 63.1024 73.4598 61.6959 72.0533C60.2893 70.6468 59.4992 68.7391 59.4992 66.75V65.5C59.4992 65.1685 59.6308 64.8505 59.8653 64.6161C60.0997 64.3817 60.4176 64.25 60.7492 64.25C61.0807 64.25 61.3986 64.3817 61.633 64.6161C61.8675 64.8505 61.9992 65.1685 61.9992 65.5V66.75Z" fill="url(#paint0_linear_162_1548)"/>
</g>
<defs>
<filter id="filter0_d_162_1548" x="0.957031" y="0.5" width="132.084" height="135" filterUnits="userSpaceOnUse" color-interpolation-filters="sRGB">
<feFlood flood-opacity="0" result="BackgroundImageFix"/>
<feColorMatrix in="SourceAlpha" type="matrix" values="0 0 0 0 0 0 0 0 0 0 0 0 0 0 0 0 0 0 127 0" result="hardAlpha"/>
<feOffset/>
<feGaussianBlur stdDeviation="25"/>
<feComposite in2="hardAlpha" operator="out"/>
<feColorMatrix type="matrix" values="0 0 0 0 0.992157 0 0 0 0 0.533333 0 0 0 0 0.0235294 0 0 0 0.5 0"/>
<feBlend mode="normal" in2="BackgroundImageFix" result="effect1_dropShadow_162_1548"/>
<feBlend mode="normal" in="SourceGraphic" in2="effect1_dropShadow_162_1548" result="shape"/>
</filter>
<linearGradient id="paint0_linear_162_1548" x1="50.957" y1="50.5" x2="85.825" y2="82.4632" gradientUnits="userSpaceOnUse">
<stop stop-color="#E26009"/>
<stop offset="1" stop-color="#FF8831"/>
</linearGradient>
</defs>
</svg>
