<svg width="134" height="134" viewBox="0 0 134 134" fill="none" xmlns="http://www.w3.org/2000/svg">
<g filter="url(#filter0_d_162_1530)">
<path fill-rule="evenodd" clip-rule="evenodd" d="M53.3203 51.8967C57.8401 51.1317 62.4162 50.7482 67.0003 50.75C71.662 50.75 76.2336 51.1433 80.682 51.8967C81.4026 52.0211 82.0558 52.3967 82.526 52.9568C82.9961 53.5169 83.2527 54.2254 83.2503 54.9567V56.6967C83.25 58.0226 82.723 59.2942 81.7853 60.2317L71.482 70.535C71.2498 70.7673 71.0658 71.043 70.9402 71.3464C70.8147 71.6498 70.7501 71.975 70.7503 72.3033V77.1817C70.7506 78.1104 70.4922 79.0208 70.0041 79.8109C69.516 80.601 68.8176 81.2396 67.987 81.655L65.0586 83.1183C64.868 83.2135 64.6563 83.2583 64.4435 83.2487C64.2308 83.239 64.024 83.1751 63.8428 83.0631C63.6617 82.9511 63.5121 82.7946 63.4084 82.6085C63.3047 82.4225 63.2503 82.213 63.2503 82V72.3033C63.2497 71.6405 62.9859 71.0051 62.517 70.5367L52.217 60.23C51.2792 59.2925 50.7522 58.021 50.752 56.695V54.9567C50.752 53.4617 51.817 52.1517 53.3203 51.8967Z" fill="black"/>
<path fill-rule="evenodd" clip-rule="evenodd" d="M53.3203 51.8967C57.8401 51.1317 62.4162 50.7482 67.0003 50.75C71.662 50.75 76.2336 51.1433 80.682 51.8967C81.4026 52.0211 82.0558 52.3967 82.526 52.9568C82.9961 53.5169 83.2527 54.2254 83.2503 54.9567V56.6967C83.25 58.0226 82.723 59.2942 81.7853 60.2317L71.482 70.535C71.2498 70.7673 71.0658 71.043 70.9402 71.3464C70.8147 71.6498 70.7501 71.975 70.7503 72.3033V77.1817C70.7506 78.1104 70.4922 79.0208 70.0041 79.8109C69.516 80.601 68.8176 81.2396 67.987 81.655L65.0586 83.1183C64.868 83.2135 64.6563 83.2583 64.4435 83.2487C64.2308 83.239 64.024 83.1751 63.8428 83.0631C63.6617 82.9511 63.5121 82.7946 63.4084 82.6085C63.3047 82.4225 63.2503 82.213 63.2503 82V72.3033C63.2497 71.6405 62.9859 71.0051 62.517 70.5367L52.217 60.23C51.2792 59.2925 50.7522 58.021 50.752 56.695V54.9567C50.752 53.4617 51.817 52.1517 53.3203 51.8967Z" fill="url(#paint0_linear_162_1530)"/>
</g>
<defs>
<filter id="filter0_d_162_1530" x="0.751953" y="0.75" width="132.498" height="132.5" filterUnits="userSpaceOnUse" color-interpolation-filters="sRGB">
<feFlood flood-opacity="0" result="BackgroundImageFix"/>
<feColorMatrix in="SourceAlpha" type="matrix" values="0 0 0 0 0 0 0 0 0 0 0 0 0 0 0 0 0 0 127 0" result="hardAlpha"/>
<feOffset/>
<feGaussianBlur stdDeviation="25"/>
<feComposite in2="hardAlpha" operator="out"/>
<feColorMatrix type="matrix" values="0 0 0 0 0.992157 0 0 0 0 0.533333 0 0 0 0 0.0235294 0 0 0 0.5 0"/>
<feBlend mode="normal" in2="BackgroundImageFix" result="effect1_dropShadow_162_1530"/>
<feBlend mode="normal" in="SourceGraphic" in2="effect1_dropShadow_162_1530" result="shape"/>
</filter>
<linearGradient id="paint0_linear_162_1530" x1="50.752" y1="50.75" x2="83.2519" y2="83.2484" gradientUnits="userSpaceOnUse">
<stop stop-color="#E26009"/>
<stop offset="1" stop-color="#FF8831"/>
</linearGradient>
</defs>
</svg>
