<svg width="136" height="128" viewBox="0 0 136 128" fill="none" xmlns="http://www.w3.org/2000/svg">
<g filter="url(#filter0_d_162_1544)">
<path fill-rule="evenodd" clip-rule="evenodd" d="M50.5 54C50.5 53.0054 50.8951 52.0516 51.5983 51.3483C52.3016 50.6451 53.2554 50.25 54.25 50.25H81.75C82.7446 50.25 83.6984 50.6451 84.4016 51.3483C85.1049 52.0516 85.5 53.0054 85.5 54V74C85.5 74.9946 85.1049 75.9484 84.4016 76.6516C83.6984 77.3549 82.7446 77.75 81.75 77.75H54.25C53.2554 77.75 52.3016 77.3549 51.5983 76.6516C50.8951 75.9484 50.5 74.9946 50.5 74V54ZM53 70.7667V74C53 74.69 53.56 75.25 54.25 75.25H81.75C82.0815 75.25 82.3995 75.1183 82.6339 74.8839C82.8683 74.6495 83 74.3315 83 74V70.7667L78.5167 66.285C78.0479 65.8168 77.4125 65.5539 76.75 65.5539C76.0875 65.5539 75.4521 65.8168 74.9833 66.285L73.5167 67.75L75.1333 69.3667C75.2561 69.4811 75.3546 69.6191 75.423 69.7724C75.4913 69.9258 75.528 70.0913 75.531 70.2591C75.5339 70.427 75.5031 70.5937 75.4402 70.7493C75.3773 70.905 75.2838 71.0464 75.1651 71.1651C75.0464 71.2838 74.905 71.3773 74.7493 71.4402C74.5937 71.5031 74.427 71.5339 74.2591 71.531C74.0913 71.528 73.9258 71.4913 73.7724 71.423C73.6191 71.3546 73.4811 71.2561 73.3667 71.1333L64.7667 62.535C64.2979 62.0668 63.6625 61.8039 63 61.8039C62.3375 61.8039 61.7021 62.0668 61.2333 62.535L53 70.7683V70.7667ZM69.875 57.75C69.875 57.2527 70.0725 56.7758 70.4242 56.4242C70.7758 56.0725 71.2527 55.875 71.75 55.875C72.2473 55.875 72.7242 56.0725 73.0758 56.4242C73.4275 56.7758 73.625 57.2527 73.625 57.75C73.625 58.2473 73.4275 58.7242 73.0758 59.0758C72.7242 59.4275 72.2473 59.625 71.75 59.625C71.2527 59.625 70.7758 59.4275 70.4242 59.0758C70.0725 58.7242 69.875 58.2473 69.875 57.75Z" fill="url(#paint0_linear_162_1544)"/>
</g>
<defs>
<filter id="filter0_d_162_1544" x="0.5" y="0.25" width="135" height="127.5" filterUnits="userSpaceOnUse" color-interpolation-filters="sRGB">
<feFlood flood-opacity="0" result="BackgroundImageFix"/>
<feColorMatrix in="SourceAlpha" type="matrix" values="0 0 0 0 0 0 0 0 0 0 0 0 0 0 0 0 0 0 127 0" result="hardAlpha"/>
<feOffset/>
<feGaussianBlur stdDeviation="25"/>
<feComposite in2="hardAlpha" operator="out"/>
<feColorMatrix type="matrix" values="0 0 0 0 0.992157 0 0 0 0 0.533333 0 0 0 0 0.0235294 0 0 0 0.5 0"/>
<feBlend mode="normal" in2="BackgroundImageFix" result="effect1_dropShadow_162_1544"/>
<feBlend mode="normal" in="SourceGraphic" in2="effect1_dropShadow_162_1544" result="shape"/>
</filter>
<linearGradient id="paint0_linear_162_1544" x1="50.5" y1="50.25" x2="77.2192" y2="84.2563" gradientUnits="userSpaceOnUse">
<stop stop-color="#E26009"/>
<stop offset="1" stop-color="#FF8831"/>
</linearGradient>
</defs>
</svg>
