<svg width="130" height="134" viewBox="0 0 130 134" fill="none" xmlns="http://www.w3.org/2000/svg">
<g filter="url(#filter0_d_162_1540)">
<path fill-rule="evenodd" clip-rule="evenodd" d="M66.6042 50.8101C66.5037 50.6755 66.3772 50.5625 66.2321 50.4779C66.0871 50.3932 65.9264 50.3387 65.7598 50.3176C65.5932 50.2964 65.424 50.3091 65.2624 50.3547C65.1008 50.4004 64.9501 50.4782 64.8192 50.5834C61.6251 53.1477 59.5182 56.8244 58.9208 60.8767C57.8261 60.0829 56.8666 59.1177 56.0792 58.0184C55.9722 57.8689 55.8336 57.7448 55.6732 57.655C55.5128 57.5652 55.3346 57.5119 55.1513 57.4988C54.9679 57.4858 54.784 57.5133 54.6125 57.5795C54.441 57.6457 54.2862 57.7489 54.1592 57.8817C51.958 60.1843 50.5471 63.1279 50.1307 66.2859C49.7143 69.444 50.3141 72.6527 51.8432 75.4471C53.3722 78.2416 55.7512 80.4767 58.6355 81.8286C61.5198 83.1806 64.7596 83.5793 67.8856 82.967C71.0116 82.3546 73.8615 80.763 76.0225 78.4226C78.1834 76.0823 79.5433 73.1148 79.905 69.9499C80.2667 66.7851 79.6114 63.5873 78.0342 60.8198C76.457 58.0522 74.0397 55.8586 71.1325 54.5567C69.3453 53.6877 67.7925 52.4029 66.6042 50.8101ZM71.2492 70.7501C71.2485 71.6541 71.0518 72.5473 70.6725 73.3679C70.2932 74.1885 69.7404 74.9171 69.0522 75.5034C68.364 76.0897 67.5569 76.5196 66.6864 76.7637C65.8159 77.0077 64.9028 77.0601 64.0101 76.917C63.1175 76.7739 62.2665 76.4389 61.5159 75.9351C60.7652 75.4312 60.1328 74.7705 59.6623 73.9985C59.1918 73.2266 58.8944 72.3617 58.7905 71.4637C58.6867 70.5656 58.7789 69.6557 59.0608 68.7967C60.1075 69.5717 61.3108 70.1467 62.6158 70.4634C62.9696 68.1816 64.1034 66.0931 65.8242 64.5534C67.3258 64.7534 68.7038 65.4919 69.7017 66.6318C70.6996 67.7716 71.2495 69.2351 71.2492 70.7501Z" fill="black"/>
<path fill-rule="evenodd" clip-rule="evenodd" d="M66.6042 50.8101C66.5037 50.6755 66.3772 50.5625 66.2321 50.4779C66.0871 50.3932 65.9264 50.3387 65.7598 50.3176C65.5932 50.2964 65.424 50.3091 65.2624 50.3547C65.1008 50.4004 64.9501 50.4782 64.8192 50.5834C61.6251 53.1477 59.5182 56.8244 58.9208 60.8767C57.8261 60.0829 56.8666 59.1177 56.0792 58.0184C55.9722 57.8689 55.8336 57.7448 55.6732 57.655C55.5128 57.5652 55.3346 57.5119 55.1513 57.4988C54.9679 57.4858 54.784 57.5133 54.6125 57.5795C54.441 57.6457 54.2862 57.7489 54.1592 57.8817C51.958 60.1843 50.5471 63.1279 50.1307 66.2859C49.7143 69.444 50.3141 72.6527 51.8432 75.4471C53.3722 78.2416 55.7512 80.4767 58.6355 81.8286C61.5198 83.1806 64.7596 83.5793 67.8856 82.967C71.0116 82.3546 73.8615 80.763 76.0225 78.4226C78.1834 76.0823 79.5433 73.1148 79.905 69.9499C80.2667 66.7851 79.6114 63.5873 78.0342 60.8198C76.457 58.0522 74.0397 55.8586 71.1325 54.5567C69.3453 53.6877 67.7925 52.4029 66.6042 50.8101ZM71.2492 70.7501C71.2485 71.6541 71.0518 72.5473 70.6725 73.3679C70.2932 74.1885 69.7404 74.9171 69.0522 75.5034C68.364 76.0897 67.5569 76.5196 66.6864 76.7637C65.8159 77.0077 64.9028 77.0601 64.0101 76.917C63.1175 76.7739 62.2665 76.4389 61.5159 75.9351C60.7652 75.4312 60.1328 74.7705 59.6623 73.9985C59.1918 73.2266 58.8944 72.3617 58.7905 71.4637C58.6867 70.5656 58.7789 69.6557 59.0608 68.7967C60.1075 69.5717 61.3108 70.1467 62.6158 70.4634C62.9696 68.1816 64.1034 66.0931 65.8242 64.5534C67.3258 64.7534 68.7038 65.4919 69.7017 66.6318C70.6996 67.7716 71.2495 69.2351 71.2492 70.7501Z" fill="url(#paint0_linear_162_1540)"/>
</g>
<defs>
<filter id="filter0_d_162_1540" x="0.00195312" y="0.307617" width="130" height="132.939" filterUnits="userSpaceOnUse" color-interpolation-filters="sRGB">
<feFlood flood-opacity="0" result="BackgroundImageFix"/>
<feColorMatrix in="SourceAlpha" type="matrix" values="0 0 0 0 0 0 0 0 0 0 0 0 0 0 0 0 0 0 127 0" result="hardAlpha"/>
<feOffset/>
<feGaussianBlur stdDeviation="25"/>
<feComposite in2="hardAlpha" operator="out"/>
<feColorMatrix type="matrix" values="0 0 0 0 0.992157 0 0 0 0 0.533333 0 0 0 0 0.0235294 0 0 0 0.5 0"/>
<feBlend mode="normal" in2="BackgroundImageFix" result="effect1_dropShadow_162_1540"/>
<feBlend mode="normal" in="SourceGraphic" in2="effect1_dropShadow_162_1540" result="shape"/>
</filter>
<linearGradient id="paint0_linear_162_1540" x1="50.002" y1="50.3076" x2="82.7977" y2="80.1771" gradientUnits="userSpaceOnUse">
<stop stop-color="#E26009"/>
<stop offset="1" stop-color="#FF8831"/>
</linearGradient>
</defs>
</svg>
