<svg width="136" height="132" viewBox="0 0 136 132" fill="none" xmlns="http://www.w3.org/2000/svg">
<g filter="url(#filter0_d_162_1523)">
<path d="M68 57.5C67.0054 57.5 66.0516 57.8951 65.3483 58.5983C64.6451 59.3016 64.25 60.2554 64.25 61.25C64.25 62.2446 64.6451 63.1984 65.3483 63.9017C66.0516 64.6049 67.0054 65 68 65C68.9946 65 69.9484 64.6049 70.6516 63.9017C71.3549 63.1984 71.75 62.2446 71.75 61.25C71.75 60.2554 71.3549 59.3016 70.6516 58.5983C69.9484 57.8951 68.9946 57.5 68 57.5Z" fill="black"/>
<path d="M68 57.5C67.0054 57.5 66.0516 57.8951 65.3483 58.5983C64.6451 59.3016 64.25 60.2554 64.25 61.25C64.25 62.2446 64.6451 63.1984 65.3483 63.9017C66.0516 64.6049 67.0054 65 68 65C68.9946 65 69.9484 64.6049 70.6516 63.9017C71.3549 63.1984 71.75 62.2446 71.75 61.25C71.75 60.2554 71.3549 59.3016 70.6516 58.5983C69.9484 57.8951 68.9946 57.5 68 57.5Z" fill="url(#paint0_linear_162_1523)"/>
<path fill-rule="evenodd" clip-rule="evenodd" d="M50.5 53.125C50.5 51.3983 51.9 50 53.625 50H82.375C84.1 50 85.5 51.4 85.5 53.125V69.375C85.5 71.1017 84.1 72.5 82.375 72.5H53.625C53.2146 72.5 52.8083 72.4192 52.4291 72.2621C52.05 72.1051 51.7055 71.8749 51.4153 71.5847C51.1251 71.2945 50.8949 70.95 50.7379 70.5709C50.5808 70.1917 50.5 69.7854 50.5 69.375V53.125ZM61.75 61.25C61.75 59.5924 62.4085 58.0027 63.5806 56.8306C64.7527 55.6585 66.3424 55 68 55C69.6576 55 71.2473 55.6585 72.4194 56.8306C73.5915 58.0027 74.25 59.5924 74.25 61.25C74.25 62.9076 73.5915 64.4973 72.4194 65.6694C71.2473 66.8415 69.6576 67.5 68 67.5C66.3424 67.5 64.7527 66.8415 63.5806 65.6694C62.4085 64.4973 61.75 62.9076 61.75 61.25ZM79.25 60C78.9185 60 78.6005 60.1317 78.3661 60.3661C78.1317 60.6005 78 60.9185 78 61.25V61.2633C78 61.9533 78.56 62.5133 79.25 62.5133H79.2633C79.5949 62.5133 79.9128 62.3816 80.1472 62.1472C80.3816 61.9128 80.5133 61.5949 80.5133 61.2633V61.25C80.5133 60.9185 80.3816 60.6005 80.1472 60.3661C79.9128 60.1317 79.5949 60 79.2633 60H79.25ZM55.5 61.25C55.5 60.9185 55.6317 60.6005 55.8661 60.3661C56.1005 60.1317 56.4185 60 56.75 60H56.7633C57.0949 60 57.4128 60.1317 57.6472 60.3661C57.8816 60.6005 58.0133 60.9185 58.0133 61.25V61.2633C58.0133 61.5949 57.8816 61.9128 57.6472 62.1472C57.4128 62.3816 57.0949 62.5133 56.7633 62.5133H56.75C56.4185 62.5133 56.1005 62.3816 55.8661 62.1472C55.6317 61.9128 55.5 61.5949 55.5 61.2633V61.25Z" fill="black"/>
<path fill-rule="evenodd" clip-rule="evenodd" d="M50.5 53.125C50.5 51.3983 51.9 50 53.625 50H82.375C84.1 50 85.5 51.4 85.5 53.125V69.375C85.5 71.1017 84.1 72.5 82.375 72.5H53.625C53.2146 72.5 52.8083 72.4192 52.4291 72.2621C52.05 72.1051 51.7055 71.8749 51.4153 71.5847C51.1251 71.2945 50.8949 70.95 50.7379 70.5709C50.5808 70.1917 50.5 69.7854 50.5 69.375V53.125ZM61.75 61.25C61.75 59.5924 62.4085 58.0027 63.5806 56.8306C64.7527 55.6585 66.3424 55 68 55C69.6576 55 71.2473 55.6585 72.4194 56.8306C73.5915 58.0027 74.25 59.5924 74.25 61.25C74.25 62.9076 73.5915 64.4973 72.4194 65.6694C71.2473 66.8415 69.6576 67.5 68 67.5C66.3424 67.5 64.7527 66.8415 63.5806 65.6694C62.4085 64.4973 61.75 62.9076 61.75 61.25ZM79.25 60C78.9185 60 78.6005 60.1317 78.3661 60.3661C78.1317 60.6005 78 60.9185 78 61.25V61.2633C78 61.9533 78.56 62.5133 79.25 62.5133H79.2633C79.5949 62.5133 79.9128 62.3816 80.1472 62.1472C80.3816 61.9128 80.5133 61.5949 80.5133 61.2633V61.25C80.5133 60.9185 80.3816 60.6005 80.1472 60.3661C79.9128 60.1317 79.5949 60 79.2633 60H79.25ZM55.5 61.25C55.5 60.9185 55.6317 60.6005 55.8661 60.3661C56.1005 60.1317 56.4185 60 56.75 60H56.7633C57.0949 60 57.4128 60.1317 57.6472 60.3661C57.8816 60.6005 58.0133 60.9185 58.0133 61.25V61.2633C58.0133 61.5949 57.8816 61.9128 57.6472 62.1472C57.4128 62.3816 57.0949 62.5133 56.7633 62.5133H56.75C56.4185 62.5133 56.1005 62.3816 55.8661 62.1472C55.6317 61.9128 55.5 61.5949 55.5 61.2633V61.25Z" fill="url(#paint1_linear_162_1523)"/>
<path d="M51.75 75C51.4185 75 51.1005 75.1317 50.8661 75.3661C50.6317 75.6005 50.5 75.9185 50.5 76.25C50.5 76.5815 50.6317 76.8995 50.8661 77.1339C51.1005 77.3683 51.4185 77.5 51.75 77.5C60.75 77.5 69.4667 78.7033 77.75 80.9583C79.7333 81.4983 81.75 80.0283 81.75 77.925V76.25C81.75 75.9185 81.6183 75.6005 81.3839 75.3661C81.1495 75.1317 80.8315 75 80.5 75H51.75Z" fill="black"/>
<path d="M51.75 75C51.4185 75 51.1005 75.1317 50.8661 75.3661C50.6317 75.6005 50.5 75.9185 50.5 76.25C50.5 76.5815 50.6317 76.8995 50.8661 77.1339C51.1005 77.3683 51.4185 77.5 51.75 77.5C60.75 77.5 69.4667 78.7033 77.75 80.9583C79.7333 81.4983 81.75 80.0283 81.75 77.925V76.25C81.75 75.9185 81.6183 75.6005 81.3839 75.3661C81.1495 75.1317 80.8315 75 80.5 75H51.75Z" fill="url(#paint2_linear_162_1523)"/>
</g>
<defs>
<filter id="filter0_d_162_1523" x="0.5" y="0" width="135" height="131.071" filterUnits="userSpaceOnUse" color-interpolation-filters="sRGB">
<feFlood flood-opacity="0" result="BackgroundImageFix"/>
<feColorMatrix in="SourceAlpha" type="matrix" values="0 0 0 0 0 0 0 0 0 0 0 0 0 0 0 0 0 0 127 0" result="hardAlpha"/>
<feOffset/>
<feGaussianBlur stdDeviation="25"/>
<feComposite in2="hardAlpha" operator="out"/>
<feColorMatrix type="matrix" values="0 0 0 0 0.992157 0 0 0 0 0.533333 0 0 0 0 0.0235294 0 0 0 0.5 0"/>
<feBlend mode="normal" in2="BackgroundImageFix" result="effect1_dropShadow_162_1523"/>
<feBlend mode="normal" in="SourceGraphic" in2="effect1_dropShadow_162_1523" result="shape"/>
</filter>
<linearGradient id="paint0_linear_162_1523" x1="50.5" y1="50" x2="81.3517" y2="84.7533" gradientUnits="userSpaceOnUse">
<stop stop-color="#E26009"/>
<stop offset="1" stop-color="#FF8831"/>
</linearGradient>
<linearGradient id="paint1_linear_162_1523" x1="50.5" y1="50" x2="81.3517" y2="84.7533" gradientUnits="userSpaceOnUse">
<stop stop-color="#E26009"/>
<stop offset="1" stop-color="#FF8831"/>
</linearGradient>
<linearGradient id="paint2_linear_162_1523" x1="50.5" y1="50" x2="81.3517" y2="84.7533" gradientUnits="userSpaceOnUse">
<stop stop-color="#E26009"/>
<stop offset="1" stop-color="#FF8831"/>
</linearGradient>
</defs>
</svg>
